<svg width="328" height="223" viewBox="0 0 328 223" fill="none" xmlns="http://www.w3.org/2000/svg">
<path d="M157.379 72.5032C160.586 72.5032 163.186 69.8599 163.186 66.5992C163.186 63.3385 160.586 60.6951 157.379 60.6951C154.171 60.6951 151.571 63.3385 151.571 66.5992C151.571 69.8599 154.171 72.5032 157.379 72.5032Z" fill="#DCC2B6"/>
<path d="M121.83 75.6056C121.923 75.6056 121.997 75.5492 122.015 75.4552C122.459 72.7852 122.922 70.4537 126.103 70.2845C126.676 70.2469 127.823 70.2281 129.58 70.1905C131.466 70.1529 132.761 70.9614 133.482 72.6348C133.834 73.4433 133.982 74.4587 134.13 75.3988C134.148 75.5116 134.241 75.6056 134.37 75.6056L136.405 75.6244C136.534 75.6244 136.627 75.7373 136.627 75.8501C136.627 75.8689 136.627 75.9065 136.608 75.9253C136.016 77.6175 135.406 79.2722 134.814 80.9268C134.537 81.6977 134.13 82.2618 133.298 82.2618C132.04 82.2618 130.745 82.2618 129.45 82.2618C129.395 82.2618 129.339 82.2054 129.339 82.149C129.339 82.149 129.339 82.149 129.339 82.1302C129.524 79.573 126.584 79.7798 126.843 82.055C126.843 82.149 126.787 82.2242 126.695 82.243C126.695 82.243 126.695 82.243 126.676 82.243C125.548 82.2806 124.42 82.2994 123.273 82.2806C122.441 82.2618 121.867 81.9045 121.553 81.19C120.776 79.4226 120.129 77.6175 119.574 75.8125C119.555 75.7373 119.592 75.662 119.666 75.6432C119.685 75.6432 119.685 75.6432 119.703 75.6432L121.83 75.6056ZM124.716 75.6432L131.448 75.6244C131.485 75.6244 131.522 75.5868 131.522 75.5492V74.7031C131.522 73.6314 130.801 72.7664 129.894 72.7664H126.251C125.363 72.7664 124.623 73.6314 124.623 74.7031V75.5492C124.642 75.6056 124.679 75.6432 124.716 75.6432Z" fill="#F4F2EE"/>
<path d="M185.621 75.5117C185.677 75.5681 185.769 75.5681 185.825 75.5117C187.378 73.857 189.024 72.7101 191.318 72.8417C192.594 72.9169 193.722 73.3493 194.739 74.1203C197.144 76.0005 197.828 79.7987 195.96 82.3558C195.498 82.9951 194.924 83.6532 194.259 84.3489C191.54 87.1317 188.747 89.9521 185.899 92.8101C185.806 92.9042 185.658 92.9042 185.566 92.8101C182.625 89.8393 179.684 86.8309 176.725 83.7848C175.689 82.7131 174.709 81.5097 174.468 79.9303C174.043 76.9971 175.615 74.3083 178.316 73.1801C180.664 72.2024 183.161 73.1425 184.918 74.8348C185.177 75.098 185.399 75.3048 185.621 75.5117Z" fill="#CCEEDD" fill-opacity="0.552941"/>
<path d="M149 92.9793C147.835 92.9793 146.873 92.0204 146.873 90.817V84.9882C146.873 80.1559 150.739 76.2261 155.511 76.2261H159.691C164.462 76.2261 168.328 80.1559 168.328 84.9882V90.817C168.328 92.0016 167.385 92.9793 166.201 92.9793H149Z" fill="#DCC2B6"/>
<path d="M118.168 91.7759C118.131 87.8274 118.113 83.86 118.131 79.9114C118.131 79.855 118.168 79.8174 118.224 79.8174C118.242 79.8174 118.242 79.8174 118.261 79.8174C118.316 79.8362 118.353 79.8926 118.372 79.9678C119.148 82.4122 120.036 84.7061 123.033 84.7625C124.216 84.7813 125.418 84.7813 126.602 84.7437C126.695 84.7437 126.75 84.7813 126.75 84.8754C126.787 85.7967 127.046 86.7744 128.137 86.7556C129.099 86.7368 129.302 85.7027 129.376 84.9506C129.395 84.8565 129.469 84.7813 129.561 84.7813C130.579 84.7625 131.559 84.7625 132.521 84.7625C136.09 84.7625 136.923 82.7318 137.847 79.761C137.921 79.5354 137.995 79.5354 138.069 79.761C138.069 79.761 138.069 79.8174 138.069 79.9302C138.069 83.672 138.069 87.4137 138.069 91.1555C138.069 92.3212 137.792 92.9417 136.571 92.9417C130.893 92.9417 125.215 92.9417 119.537 92.9417C118.723 92.9793 118.187 92.6409 118.168 91.7759Z" fill="#F4F2EE"/>
<path d="M158.211 100.632C160.097 103.998 162.021 107.382 163.963 110.767C164.055 110.936 164.296 111.011 164.444 110.974C164.555 110.936 164.647 110.992 164.684 111.105V111.124C164.721 111.35 164.777 111.594 164.814 111.838C164.851 112.026 164.906 112.196 165.017 112.365C166.46 114.809 167.829 117.254 169.16 119.698C169.234 119.848 169.253 120.036 169.179 120.206C169.012 120.619 168.661 120.826 168.143 120.826C161.022 120.807 153.901 120.807 146.781 120.789C146.281 120.789 145.967 120.45 145.985 119.999C145.985 119.83 146.078 119.585 146.263 119.266C149.684 113.042 153.088 106.837 156.491 100.67C156.546 100.576 156.509 100.538 156.417 100.538C143.599 100.538 130.782 100.538 117.946 100.538C117.299 100.538 116.966 100.181 116.984 99.4851C117.003 97.7928 118.076 97.9244 119.463 97.9244C145.357 97.9244 171.232 97.9244 197.125 97.9244C198.328 97.9244 198.697 100.5 197.144 100.5C184.197 100.519 171.25 100.538 158.285 100.538C158.248 100.538 158.211 100.576 158.211 100.613C158.211 100.613 158.211 100.613 158.211 100.632Z" fill="#DDE1E3"/>
<path d="M60.4254 150.44C56.9297 150.403 53.1566 149.763 52.8607 145.345C52.8237 144.762 52.8052 144.461 52.8052 144.461C52.4353 140.513 52.5093 136.564 52.9902 132.615C53.5635 128.046 59.9445 128.272 63.1997 128.723C64.2909 128.874 65.2527 128.986 66.1405 129.569C67.7496 130.622 68.1935 132.503 68.3229 134.308C68.5819 138.313 68.5449 142.092 68.2305 145.627C67.8236 149.933 63.958 150.459 60.4254 150.44ZM63.5881 134.627C63.5881 133.48 62.6633 132.54 61.5351 132.54H59.5191C58.3909 132.54 57.4661 133.48 57.4661 134.627L57.5031 144.235C57.5031 145.382 58.4279 146.323 59.5561 146.323H61.5721C62.7003 146.323 63.6251 145.382 63.6251 144.235L63.5881 134.627Z" fill="white"/>
<path d="M260.75 130.51C263.136 127.821 268.278 128.291 271.348 129.024C271.422 129.043 271.459 129.099 271.459 129.175V132.691C271.459 132.747 271.403 132.803 271.348 132.803H271.329C270.035 132.615 268.74 132.54 267.482 132.54C266.021 132.54 264.412 132.728 264.246 134.477C263.968 137.222 263.894 139.986 264.005 142.75C264.042 143.859 264.283 145.401 265.281 145.909C266.761 146.661 269.757 146.285 271.366 146.078C271.496 146.059 271.607 146.153 271.625 146.266C271.625 146.285 271.625 146.285 271.625 146.304L271.588 149.651C271.588 149.763 271.533 149.839 271.422 149.876C268.629 150.516 264.763 150.835 262.174 149.519C260.472 148.654 259.825 147.094 259.548 145.251C258.993 141.566 258.956 137.899 259.455 134.195C259.603 132.747 259.807 131.581 260.75 130.51Z" fill="white"/>
<path d="M29.6489 144.405C29.7783 144.649 29.8708 144.63 29.9263 144.367L32.7931 129.024C32.8301 128.855 32.9781 128.742 33.1445 128.742H37.8054C37.9348 128.742 38.0273 128.836 38.0643 128.949L40.9496 143.953C41.1161 144.781 41.2455 144.781 41.375 143.935L43.613 128.892C43.6314 128.798 43.7054 128.723 43.7979 128.723H48.1998C48.2923 128.723 48.3663 128.798 48.3663 128.892C48.3663 128.911 48.3663 128.911 48.3663 128.93L44.4637 149.745C44.4083 150.008 44.2603 150.158 43.9829 150.158H38.1938C38.1568 150.158 38.1198 150.121 38.1198 150.083C37.269 145.57 36.3997 141.058 35.5489 136.545C35.5304 136.432 35.5119 136.376 35.5119 136.376C35.3825 136.169 35.29 136.188 35.253 136.432L32.6636 149.97C32.6451 150.102 32.5712 150.158 32.4417 150.158H26.4676C26.4122 150.158 26.3752 150.121 26.3567 150.064L22.4541 129.005C22.4356 128.892 22.5096 128.78 22.6206 128.761C22.6391 128.761 22.6391 128.761 22.6576 128.761H26.93C27.078 128.761 27.2075 128.874 27.226 129.024C28.0213 134.12 28.8351 139.159 29.6304 144.179C29.6304 144.292 29.6489 144.386 29.6489 144.405Z" fill="white"/>
<path d="M79.6606 142.75V149.858C79.6606 150.046 79.5681 150.14 79.3832 150.14H75.0368C74.9628 150.14 74.8888 150.083 74.8888 149.989V128.93C74.8888 128.817 74.9813 128.723 75.0922 128.723C78.218 128.686 81.2697 128.629 84.3585 128.855C86.7629 129.024 88.9823 129.851 89.4447 132.54C89.8886 135.21 90.0736 139.986 87.3917 141.678C87.2438 141.772 87.1883 141.942 87.2438 142.092L89.9626 149.801C89.9996 149.933 89.9441 150.064 89.8146 150.102C89.7961 150.102 89.7592 150.121 89.7407 150.121H85.2278C85.1353 150.121 85.0613 150.064 85.0243 149.97L82.6939 142.844C82.6569 142.712 82.5274 142.618 82.3795 142.618H79.7161C79.6791 142.656 79.6606 142.694 79.6606 142.75ZM79.5866 133.01L79.6236 138.463C79.6236 138.595 79.7346 138.689 79.8456 138.689L83.0268 138.67C84.0626 138.67 84.8948 137.805 84.8764 136.771L84.8579 134.665C84.8579 133.612 84.0071 132.766 82.9898 132.785L79.8086 132.803C79.6976 132.785 79.5866 132.879 79.5866 133.01Z" fill="white"/>
<path d="M100.745 141.472V150.008C100.745 150.083 100.69 150.158 100.598 150.158H96.1216C96.0476 150.158 95.9736 150.102 95.9736 150.008V128.855C95.9736 128.78 96.0291 128.704 96.1216 128.704H100.598C100.671 128.704 100.745 128.761 100.745 128.855V137.053C100.745 137.128 100.801 137.203 100.893 137.203H101.966C102.022 137.203 102.059 137.184 102.096 137.128L106.83 128.78C106.849 128.742 106.904 128.704 106.96 128.704H111.75C111.824 128.704 111.88 128.761 111.88 128.855C111.88 128.874 111.88 128.911 111.861 128.93L105.906 138.877C105.887 138.914 105.887 138.971 105.906 139.027L111.917 149.933C111.954 150.008 111.935 150.083 111.861 150.121C111.843 150.14 111.824 150.14 111.787 150.14H106.812C106.756 150.14 106.719 150.121 106.683 150.064L102.059 141.396C102.04 141.359 101.985 141.321 101.929 141.321H100.875C100.801 141.321 100.745 141.396 100.745 141.472Z" fill="white"/>
<path d="M122.034 145.928L128.785 145.947C128.84 145.947 128.896 146.003 128.896 146.059V150.008C128.896 150.064 128.84 150.121 128.785 150.121H117.28C117.225 150.121 117.169 150.064 117.169 150.008V128.817C117.169 128.761 117.225 128.704 117.28 128.704H121.793C121.849 128.704 121.904 128.761 121.904 128.817V145.796C121.923 145.89 121.978 145.928 122.034 145.928Z" fill="white"/>
<path d="M134.518 128.723H139.105C139.161 128.723 139.216 128.78 139.216 128.836V150.027C139.216 150.083 139.161 150.14 139.105 150.14H134.518C134.463 150.14 134.407 150.083 134.407 150.027V128.836C134.407 128.78 134.444 128.723 134.518 128.723Z" fill="white"/>
<path d="M150.739 150.14L146.244 150.158C146.17 150.158 146.115 150.102 146.115 150.027V128.855C146.115 128.78 146.17 128.723 146.244 128.723H158.063C158.137 128.723 158.192 128.78 158.192 128.855V132.672C158.192 132.747 158.137 132.803 158.063 132.803H150.998C150.924 132.803 150.868 132.86 150.868 132.935V137.749C150.868 137.824 150.924 137.88 150.998 137.88H157.231C157.305 137.88 157.36 137.937 157.36 138.012L157.342 141.81C157.342 141.885 157.286 141.942 157.212 141.942H151.016C150.942 141.942 150.887 141.998 150.887 142.073V150.008C150.868 150.083 150.813 150.14 150.739 150.14Z" fill="white"/>
<path d="M177.169 146.229L177.15 150.008C177.15 150.083 177.095 150.14 177.021 150.14H164.703C164.629 150.14 164.573 150.083 164.573 150.008V128.855C164.573 128.78 164.629 128.723 164.703 128.723H177.021C177.095 128.723 177.15 128.78 177.15 128.855V132.653C177.15 132.728 177.095 132.785 177.021 132.785H169.401C169.327 132.785 169.271 132.841 169.271 132.916V137.166C169.271 137.241 169.327 137.297 169.401 137.297H175.856C175.93 137.297 175.985 137.354 175.985 137.429L176.022 141.208C176.022 141.283 175.967 141.34 175.893 141.34H169.401C169.327 141.34 169.271 141.396 169.271 141.472V145.947C169.271 146.022 169.327 146.078 169.401 146.078H177.039C177.113 146.097 177.169 146.153 177.169 146.229Z" fill="white"/>
<path d="M203.469 142.148C203.58 142.581 203.691 142.581 203.802 142.148L207.224 128.817C207.242 128.761 207.279 128.723 207.335 128.723H213.845C213.938 128.723 214.012 128.798 214.012 128.911V150.046C214.012 150.102 213.975 150.14 213.919 150.14H209.443C209.406 150.14 209.369 150.102 209.369 150.064V135.68C209.369 135.643 209.332 135.605 209.295 135.586C209.277 135.586 209.24 135.586 209.221 135.586C209.166 135.605 209.129 135.624 209.11 135.68L205.374 150.064C205.374 150.102 205.337 150.121 205.3 150.121H201.712C201.657 150.121 201.62 150.102 201.62 150.046L197.884 135.492C197.865 135.436 197.828 135.379 197.754 135.361C197.699 135.342 197.662 135.379 197.662 135.436C197.625 140.287 197.625 145.157 197.606 150.027C197.606 150.064 197.588 150.102 197.532 150.102L193.352 150.14C193.26 150.14 193.167 150.064 193.167 149.952V128.855C193.167 128.78 193.223 128.723 193.297 128.723H199.807C199.9 128.723 199.974 128.78 199.992 128.874L203.469 142.148Z" fill="white"/>
<path d="M231.065 145.853H225.054C224.998 145.853 224.943 145.89 224.924 145.947L223.999 150.027C223.981 150.083 223.944 150.121 223.87 150.121H219.32C219.246 150.121 219.19 150.064 219.19 149.989C219.19 149.97 219.19 149.97 219.19 149.952L224.739 128.78C224.758 128.723 224.795 128.686 224.869 128.686H231.361C231.416 128.686 231.471 128.723 231.49 128.78L237.02 149.933C237.039 150.008 237.002 150.064 236.928 150.083C236.909 150.083 236.909 150.083 236.891 150.083H232.322C232.267 150.083 232.211 150.046 232.193 149.989L231.194 145.909C231.176 145.89 231.139 145.853 231.065 145.853ZM225.941 141.697C225.923 141.772 225.978 141.848 226.052 141.866C226.071 141.866 226.071 141.866 226.089 141.866H230.029C230.103 141.866 230.177 141.81 230.177 141.716C230.177 141.697 230.177 141.697 230.177 141.678L228.216 133.198C228.198 133.123 228.124 133.067 228.05 133.085C227.994 133.104 227.957 133.142 227.939 133.198L225.941 141.697Z" fill="white"/>
<path d="M239.554 132.803V128.874C239.554 128.798 239.61 128.723 239.702 128.723H254.128C254.202 128.723 254.276 128.78 254.276 128.874V132.803C254.276 132.879 254.221 132.954 254.128 132.954H249.431C249.357 132.954 249.283 133.01 249.283 133.104L249.264 150.008C249.264 150.083 249.209 150.14 249.116 150.158L244.659 150.177C244.585 150.177 244.511 150.121 244.511 150.027V133.085C244.511 133.01 244.455 132.935 244.363 132.935H239.683C239.628 132.935 239.554 132.879 239.554 132.803Z" fill="white"/>
<path d="M287.827 141.528H282.519C282.445 141.528 282.371 141.603 282.371 141.678V149.989C282.371 150.064 282.297 150.14 282.223 150.14H277.71C277.636 150.14 277.562 150.064 277.562 149.989V128.874C277.562 128.798 277.636 128.723 277.71 128.723H282.223C282.297 128.723 282.371 128.798 282.371 128.874V137.109C282.371 137.184 282.445 137.26 282.519 137.26H287.827C287.901 137.26 287.975 137.184 287.975 137.109V128.874C287.975 128.798 288.049 128.723 288.123 128.723H292.636C292.71 128.723 292.784 128.798 292.784 128.874V149.989C292.784 150.064 292.71 150.14 292.636 150.14H288.123C288.049 150.14 287.975 150.064 287.975 149.989V141.678C287.975 141.584 287.901 141.528 287.827 141.528Z" fill="white"/>
</svg>
