<svg width="300" height="223" xmlns="http://www.w3.org/2000/svg">
    <g transform="scale(3.5) translate(-115, -59)">
        <path fill="#EADDCA" d="M121.83 75.6056C121.923 75.6056 121.997 75.5492 122.015 75.4552C122.459 72.7852 122.922 70.4537 126.103 70.2845C126.676 70.2469 127.823 70.2281 129.58 70.1905C131.466 70.1529 132.761 70.9614 133.482 72.6348C133.834 73.4433 133.982 74.4587 134.13 75.3988C134.148 75.5116 134.241 75.6056 134.37 75.6056L136.405 75.6244C136.534 75.6244 136.627 75.7373 136.627 75.8501C136.627 75.8689 136.627 75.9065 136.608 75.9253C136.016 77.6175 135.406 79.2722 134.814 80.9268C134.537 81.6977 134.13 82.2618 133.298 82.2618C132.04 82.2618 130.745 82.2618 129.45 82.2618C129.395 82.2618 129.339 82.2054 129.339 82.149C129.339 82.149 129.339 82.149 129.339 82.1302C129.524 79.573 126.584 79.7798 126.843 82.055C126.843 82.149 126.787 82.2242 126.695 82.243C126.695 82.243 126.695 82.243 126.676 82.243C125.548 82.2806 124.42 82.2994 123.273 82.2806C122.441 82.2618 121.867 81.9045 121.553 81.19C120.776 79.4226 120.129 77.6175 119.574 75.8125C119.555 75.7373 119.592 75.662 119.666 75.6432C119.685 75.6432 119.685 75.6432 119.703 75.6432L121.83 75.6056ZM124.716 75.6432L131.448 75.6244C131.485 75.6244 131.522 75.5868 131.522 75.5492V74.7031C131.522 73.6314 130.801 72.7664 129.894 72.7664H126.251C125.363 72.7664 124.623 73.6314 124.623 74.7031V75.5492C124.642 75.6056 124.679 75.6432 124.716 75.6432Z"/>
        <path fill="#EADDCA" d="M118.168 91.7759C118.131 87.8274 118.113 83.86 118.131 79.9114C118.131 79.855 118.168 79.8174 118.224 79.8174C118.242 79.8174 118.242 79.8174 118.261 79.8174C118.316 79.8362 118.353 79.8926 118.372 79.9678C119.148 82.4122 120.036 84.7061 123.033 84.7625C124.216 84.7813 125.418 84.7813 126.602 84.7437C126.695 84.7437 126.75 84.7813 126.75 84.8754C126.787 85.7967 127.046 86.7744 128.137 86.7556C129.099 86.7368 129.302 85.7027 129.376 84.9506C129.395 84.8565 129.469 84.7813 129.561 84.7813C130.579 84.7625 131.559 84.7625 132.521 84.7625C136.09 84.7625 136.923 82.7318 137.847 79.761C137.921 79.5354 137.995 79.5354 138.069 79.761C138.069 79.761 138.069 79.8174 138.069 79.9302C138.069 83.672 138.069 87.4137 138.069 91.1555C138.069 92.3212 137.792 92.9417 136.571 92.9417C130.893 92.9417 125.215 92.9417 119.537 92.9417C118.723 92.9793 118.187 92.6409 118.168 91.7759Z"/>
        <path fill="#CCEEDD" d="M185.621 75.5117C185.677 75.5681 185.769 75.5681 185.825 75.5117C187.378 73.857 189.024 72.7101 191.318 72.8417C192.594 72.9169 193.722 73.3493 194.739 74.1203C197.144 76.0005 197.828 79.7987 195.96 82.3558C195.498 82.9951 194.924 83.6532 194.259 84.3489C191.54 87.1317 188.747 89.9521 185.899 92.8101C185.806 92.9042 185.658 92.9042 185.566 92.8101C182.625 89.8393 179.684 86.8309 176.725 83.7848C175.689 82.7131 174.709 81.5097 174.468 79.9303C174.043 76.9971 175.615 74.3083 178.316 73.1801C180.664 72.2024 183.161 73.1425 184.918 74.8348C185.177 75.098 185.399 75.3048 185.621 75.5117Z" />
        <path fill="#DCC2B6" d="M157.379 72.5032C160.586 72.5032 163.186 69.8599 163.186 66.5992C163.186 63.3385 160.586 60.6951 157.379 60.6951C154.171 60.6951 151.571 63.3385 151.571 66.5992C151.571 69.8599 154.171 72.5032 157.379 72.5032Z" />
        <path fill="#DCC2B6" d="M149 92.9793C147.835 92.9793 146.873 92.0204 146.873 90.817V84.9882C146.873 80.1559 150.739 76.2261 155.511 76.2261H159.691C164.462 76.2261 168.328 80.1559 168.328 84.9882V90.817C168.328 92.0016 167.385 92.9793 166.201 92.9793H149Z"/>
        <path fill="#DDE1E3" d="M158.211 100.632C160.097 103.998 162.021 107.382 163.963 110.767C164.055 110.936 164.296 111.011 164.444 110.974C164.555 110.936 164.647 110.992 164.684 111.105V111.124C164.721 111.35 164.777 111.594 164.814 111.838C164.851 112.026 164.906 112.196 165.017 112.365C166.46 114.809 167.829 117.254 169.16 119.698C169.234 119.848 169.253 120.036 169.179 120.206C169.012 120.619 168.661 120.826 168.143 120.826C161.022 120.807 153.901 120.807 146.781 120.789C146.281 120.789 145.967 120.45 145.985 119.999C145.985 119.83 146.078 119.585 146.263 119.266C149.684 113.042 153.088 106.837 156.491 100.67C156.546 100.576 156.509 100.538 156.417 100.538C143.599 100.538 130.782 100.538 117.946 100.538C117.299 100.538 116.966 100.181 116.984 99.4851C117.003 97.7928 118.076 97.9244 119.463 97.9244C145.357 97.9244 171.232 97.9244 197.125 97.9244C198.328 97.9244 198.697 100.5 197.144 100.5C184.197 100.519 171.25 100.538 158.285 100.538C158.248 100.538 158.211 100.576 158.211 100.613C158.211 100.613 158.211 100.613 158.211 100.632Z"/>
    </g>
</svg>
