<?xml version="1.0" encoding="UTF-8"?>
<svg id="Layer_1" data-name="Layer 1" xmlns="http://www.w3.org/2000/svg" viewBox="0 0 219.55 50.06">
  <defs>
    <style>
      .cls-1 {
        fill: rgba(25, 83, 95, .55);
      }

      .cls-1, .cls-2, .cls-3, .cls-4, .cls-5 {
        stroke-width: 0px;
      }

      .cls-2 {
        fill: #d3ab9e;
      }

      .cls-4 {
        fill: #eac9c1;
      }

      .cls-5 {
        fill: #dcc2b6;
      }
    </style>
  </defs>
  <path class="cls-5" d="m30.28,9.9c2.41,0,4.42-2.14,4.42-4.95s-2.01-4.95-4.42-4.95-4.42,2.14-4.42,4.95,2.01,4.95,4.42,4.95Z"/>
  <path class="cls-2" d="m3.38,12.45q.13,0,.13-.13c.4-2.28.67-4.15,3.08-4.28.4,0,1.34,0,2.68-.13,1.47,0,2.41.67,2.94,2.01.27.67.4,1.47.54,2.28,0,.13.13.13.13.13h1.47c.13,0,.13.13.13.13h0c-.4,1.47-.94,2.81-1.34,4.15-.27.67-.54,1.07-1.2,1.07h-2.94s-.13,0-.13-.13h0c.13-2.14-2.14-2.01-1.87,0q0,.13-.13.13h-2.54c-.67,0-1.07-.27-1.34-.94-.54-1.47-1.07-2.94-1.47-4.42,0,0,0-.13.13-.13h0l1.74.27Zm2.14,0h5.09v-.8c0-.94-.54-1.61-1.2-1.61h-2.81c-.67,0-1.2.67-1.2,1.61l.13.8h0Z"/>
  <path class="cls-1" d="m51.56,12.31h.13c1.2-1.34,2.41-2.28,4.15-2.28.94,0,1.87.4,2.54,1.07,1.87,1.61,2.28,4.68.94,6.83-.4.54-.8,1.07-1.34,1.61-2.01,2.28-4.15,4.68-6.29,7.09q-.13.13-.27,0c-2.28-2.41-4.42-4.95-6.69-7.49-.8-.94-1.47-1.87-1.74-3.21-.27-2.41.8-4.68,2.94-5.62,1.74-.8,3.61,0,4.95,1.34.4.4.54.54.67.67Z"/>
  <path class="cls-5" d="m23.99,26.9c-.94,0-1.61-.8-1.61-1.74v-4.82c0-4.02,2.94-7.36,6.56-7.36h3.21c3.61,0,6.56,3.21,6.56,7.36v4.82c0,.94-.67,1.74-1.61,1.74h-13.12Z"/>
  <path class="cls-2" d="m.57,25.96v-9.9s0-.13.13-.13h0s.13,0,.13.13c.54,2.01,1.2,3.88,3.48,4.02h2.68q.13,0,.13.13c0,.8.27,1.61,1.07,1.61.67,0,.94-.94.94-1.47,0-.13.13-.13.13-.13h2.28c2.68,0,3.35-1.74,4.02-4.15,0-.13.13-.13.13,0v9.5c0,.94-.27,1.47-1.07,1.47H1.77c-.8-.13-1.2-.4-1.2-1.07Z"/>
  <path class="cls-4" d="m30.95,33.33c1.47,2.81,2.94,5.62,4.42,8.43.13.13.27.27.4.13q.13,0,.13.13h0c0,.13.13.4.13.54s.13.27.13.4c1.07,2.01,2.14,4.02,3.08,6.16,0,.13.13.27,0,.4-.13.4-.4.54-.8.54h-16.19c-.4,0-.67-.27-.54-.67,0-.13.13-.4.27-.67,2.54-5.22,5.22-10.31,7.76-15.53v-.13H.7c-.54,0-.8-.27-.67-.94,0-1.47.8-1.34,1.87-1.34h58.76c.94,0,1.2,2.14,0,2.14-10.17.27-19.94.27-29.71.4q0-.13,0,0h0Z"/>
  <path class="cls-3" d="m88.25,24.51c-2,0-4.1-.4-4.3-3.2v-.5c-.2-2.5-.2-4.9.1-7.4.3-2.8,3.9-2.7,5.8-2.4.6.1,1.2.2,1.7.5.9.7,1.2,1.8,1.2,2.9.1,2.5.1,4.8-.1,7-.2,2.7-2.4,3.1-4.4,3.1Zm1.8-9.9c0-.7-.5-1.3-1.2-1.3h-1.1c-.6,0-1.2.6-1.2,1.3v6c0,.7.5,1.3,1.2,1.3h1.1c.6,0,1.2-.6,1.2-1.3v-6Z"/>
  <path class="cls-3" d="m201.45,12.11c1.3-1.7,4.3-1.4,6-.9,0,0,.1,0,.1.1v2.2s0,.1-.1.1h0c-.7-.1-1.5-.2-2.2-.2-.8,0-1.7.1-1.8,1.2-.2,1.7-.2,3.4-.1,5.1,0,.7.2,1.6.7,2,.8.5,2.5.2,3.4.1q.1,0,.1.1h0v2.1q0,.1-.1.1c-1.6.4-3.8.6-5.2-.2-1-.5-1.3-1.5-1.5-2.7-.3-2.3-.3-4.6-.1-6.9.2-.8.3-1.6.8-2.2Z"/>
  <path class="cls-3" d="m70.85,20.71c.1.2.1.1.2,0l1.6-9.5c0-.1.1-.2.2-.2h2.6c.1,0,.1.1.1.1l1.6,9.3c.1.5.2.5.2,0l1.3-9.4c0-.1.1-.1.1-.1h2.5q.1,0,.1.1h0l-2.2,13c0,.2-.1.3-.3.3h-3.3l-1.5-8.4v-.1q-.1-.1-.1,0l-1.4,8.4c0,.1-.1.1-.1.1h-3.4s-.1,0-.1-.1l-2.2-13.1q0-.1.1-.2h2.4c.1,0,.2.1.2.2.4,3.2.9,6.3,1.4,9.4v.2Z"/>
  <path class="cls-3" d="m99.15,19.71v4.4c0,.1-.1.2-.2.2h-2.4s-.1,0-.1-.1v-13.1c0-.1.1-.1.1-.1,1.8,0,3.5-.1,5.2.1,1.4.1,2.6.6,2.9,2.3.3,1.7.4,4.6-1.2,5.7-.1.1-.1.2-.1.3l1.5,4.8c0,.1,0,.2-.1.2h-2.6q-.1,0-.1-.1l-1.3-4.4c0-.1-.1-.1-.2-.1l-1.4-.1q0-.1,0,0Zm-.1-6.1v3.4c0,.1.1.1.1.1h1.8c.6,0,1.1-.5,1-1.2v-1.3c0-.7-.5-1.2-1.1-1.2h-1.8c.1.1,0,.1,0,.2Z"/>
  <path class="cls-3" d="m111.05,18.91v5.3s0,.1-.1.1h-2.5s-.1,0-.1-.1v-13.2s0-.1.1-.1h2.5s.1,0,.1.1v5.1s0,.1.1.1h.7l2.7-5.2h2.8s.1,0,.1.1h0l-3.4,6.2v.1l3.4,6.8v.1h-2.9l-2.6-5.4h-.9q0-.1,0,0Z"/>
  <path class="cls-3" d="m123.05,21.71h3.8s.1,0,.1.1v2.5s0,.1-.1.1h-6.5s-.1,0-.1-.1v-13.3s0-.1.1-.1h2.6s.1,0,.1.1v10.7c0-.1,0,0,0,0Z"/>
  <path class="cls-3" d="m130.15,11.01h2.6s.1,0,.1.1v13.2s0,.1-.1.1h-2.6s-.1,0-.1-.1l.1-13.3q-.1,0,0,0Z"/>
  <path class="cls-3" d="m139.25,24.31h-2.5s-.1,0-.1-.1v-13.2s0-.1.1-.1h6.7s.1,0,.1.1v2.4s0,.1-.1.1h-4s-.1,0-.1.1v3s0,.1.1.1h3.5s.1,0,.1.1v2.4s0,.1-.1.1h-3.5s-.1,0-.1.1l-.1,4.9c.1-.1.1,0,0,0Z"/>
  <path class="cls-3" d="m154.25,21.81v2.4s0,.1-.1.1h-7s-.1,0-.1-.1v-13.2s0-.1.1-.1h7s.1,0,.1.1v2.4s0,.1-.1.1h-4.3s-.1,0-.1.1v2.6s0,.1.1.1h3.6s.1,0,.1.1v2.4s0,.1-.1.1h-3.7s-.1,0-.1.1v2.8s0,.1.1.1l4.5-.1c-.1,0,0,0,0,0Z"/>
  <path class="cls-3" d="m169.05,19.31q.1.3.2,0l1.9-8.3s0-.1.1-.1h3.7q.1,0,.1.1v13.2s0,.1-.1.1h-2.5v-9.1h0s-.1,0-.1.1l-2.1,9h-2.1l-2.1-9.1s0-.1-.1-.1h-.1v9.1h-2.4q-.1,0-.1-.1v-13.1s0-.1.1-.1h3.7q.1,0,.1.1l1.8,8.3Z"/>
  <path class="cls-3" d="m184.65,21.61h-3.4s-.1,0-.1.1l-.5,2.5s0,.1-.1.1h-2.6s-.1,0-.1-.1h0l3.1-13.2s0-.1.1-.1h3.7s.1,0,.1.1l3.1,13.2s0,.1-.1.1h-2.6s-.1,0-.1-.1l-.5-2.6q.1,0,0,0Zm-2.9-2.6s0,.1.1.1h2.2s.1,0,.1-.1h0l-1.1-5.3-.1-.1s-.1,0-.1.1l-1.1,5.3Z"/>
  <path class="cls-3" d="m189.45,13.51v-2.4s0-.1.1-.1h8.2s.1,0,.1.1v2.4s0,.1-.1.1h-2.7s-.1,0-.1.1v10.5s0,.1-.1.1h-2.5s-.1,0-.1-.1v-10.5s0-.1-.1-.1l-2.7-.1c.1.1,0,0,0,0Z"/>
  <path class="cls-3" d="m216.75,18.91h-3s-.1,0-.1.1v5.2s0,.1-.1.1h-2.6s-.1,0-.1-.1v-13.2s0-.1.1-.1h2.6s.1,0,.1.1v5.1s0,.1.1.1h3s.1,0,.1-.1v-5.1s0-.1.1-.1h2.5s.1,0,.1.1v13.1s0,.1-.1.1h-2.5s-.1,0-.1-.1l-.1-5.2c.1.1,0,0,0,0Z"/>
</svg>