<?xml version="1.0" encoding="UTF-8"?>
<svg id="Layer_1" data-name="Layer 1" xmlns="http://www.w3.org/2000/svg" viewBox="0 0 152.76 55.84">
  <defs>
    <style>
      .cls-1 {
        fill: #d3ab9e;
      }

      .cls-1, .cls-2, .cls-3, .cls-4, .cls-5 {
        stroke-width: 0px;
      }

      .cls-3 {
        fill: #eac9c1;
      }

      .cls-4 {
        fill: #dcc2b6;
      }

      .cls-5 {
        fill: rgba(25, 83, 95, .55);
      }
    </style>
  </defs>
  <path class="cls-4" d="m76.24,7.35c1.81,0,3.28-1.64,3.28-3.67s-1.47-3.67-3.28-3.67-3.28,1.64-3.28,3.67,1.47,3.67,3.28,3.67Z"/>
  <path class="cls-1" d="m56.16,9.28c.05,0,.09-.04.1-.09.25-1.66.51-3.11,2.31-3.22.32-.02.97-.04,1.96-.06,1.07-.02,1.8.48,2.21,1.52.2.5.28,1.13.37,1.72.01.07.06.13.14.13h1.15c.07.01.13.08.13.15,0,.01,0,.03-.01.05-.33,1.05-.68,2.08-1.01,3.11-.16.48-.39.83-.86.83h-2.17s-.06-.04-.06-.07h0c.1-1.6-1.56-1.47-1.41-.06,0,.06-.03.11-.08.12h-.01c-.64.02-1.28.04-1.92.02-.47-.01-.79-.23-.97-.68-.44-1.1-.8-2.22-1.12-3.35-.01-.05.01-.09.05-.11h.02l1.2-.02Zm1.63.02h3.8s.04-.04.04-.06v-.53c0-.67-.41-1.21-.92-1.21h-2.06c-.5,0-.92.54-.92,1.21v.53s.03.06.05.06Z"/>
  <path class="cls-5" d="m92.2,9.22s.08.04.11,0c.88-1.03,1.81-1.74,3.1-1.66.72.05,1.36.32,1.93.8,1.36,1.17,1.75,3.53.69,5.12-.26.4-.58.81-.96,1.24-1.54,1.73-3.11,3.49-4.72,5.26-.05.06-.14.06-.19,0-1.66-1.85-3.32-3.72-5-5.62-.59-.67-1.14-1.42-1.28-2.4-.24-1.83.65-3.5,2.17-4.2,1.33-.61,2.74-.02,3.73,1.03.15.16.27.29.4.42Z"/>
  <path class="cls-4" d="m71.51,20.09c-.66,0-1.2-.6-1.2-1.35v-3.63c0-3.01,2.18-5.45,4.88-5.45h2.36c2.7,0,4.88,2.45,4.88,5.45v3.63c0,.74-.53,1.35-1.2,1.35h-9.72Z"/>
  <path class="cls-1" d="m54.09,19.34c-.02-2.46-.03-4.93-.02-7.38,0-.04.02-.06.05-.06h.02s.05.05.06.09c.44,1.52.94,2.95,2.63,2.98.67.01,1.35.01,2.02-.01.05,0,.08.02.08.08.02.57.17,1.18.78,1.17.54-.01.66-.66.7-1.12.01-.06.05-.11.1-.11.57-.01,1.13-.01,1.67-.01,2.02,0,2.49-1.26,3.01-3.11.04-.14.08-.14.13,0v7.09c0,.73-.16,1.11-.85,1.11h-9.63c-.46.02-.76-.19-.77-.73Z"/>
  <path class="cls-3" d="m76.71,24.85c1.07,2.09,2.15,4.2,3.25,6.31.05.11.19.15.27.13.06-.02.11.01.14.08h0c.02.15.05.3.07.46.02.12.05.22.11.33.82,1.52,1.59,3.04,2.34,4.56.04.09.05.21.01.32-.09.26-.29.39-.59.39-4.02-.01-8.05-.01-12.07-.02-.28,0-.46-.21-.45-.49,0-.11.05-.26.16-.46,1.93-3.87,3.86-7.73,5.78-11.57.03-.06.01-.08-.04-.08h-21.74c-.37,0-.55-.22-.54-.66.01-1.05.62-.97,1.4-.97h43.88c.68,0,.89,1.6.01,1.6-7.32.01-14.63.02-21.96.02-.02,0-.04.02-.04.05h0Z"/>
  <path class="cls-2" d="m21.46,55.84c-1.98-.02-4.11-.42-4.27-3.17-.02-.36-.03-.55-.03-.55-.21-2.46-.17-4.91.1-7.37.32-2.84,3.93-2.7,5.77-2.42.62.09,1.16.16,1.66.53.91.66,1.16,1.83,1.23,2.95.15,2.49.13,4.84-.05,7.04-.23,2.68-2.41,3.01-4.41,3Zm1.79-9.84c0-.71-.52-1.3-1.16-1.3h-1.14c-.64,0-1.16.58-1.16,1.3l.02,5.98c0,.71.52,1.3,1.16,1.3h1.14c.64,0,1.16-.58,1.16-1.3l-.02-5.98Z"/>
  <path class="cls-2" d="m134.66,43.44c1.35-1.67,4.25-1.38,5.99-.92.04.01.06.05.06.09v2.19s-.03.07-.06.07h-.01c-.73-.12-1.46-.16-2.17-.16-.83,0-1.74.12-1.83,1.21-.16,1.71-.2,3.43-.14,5.15.02.69.16,1.65.72,1.97.84.47,2.53.23,3.44.11.07-.01.14.05.15.12v.02l-.02,2.08c0,.07-.03.12-.09.14-1.58.4-3.76.6-5.23-.22-.96-.54-1.33-1.51-1.48-2.66-.31-2.29-.33-4.57-.05-6.88.08-.9.2-1.63.73-2.29Z"/>
  <path class="cls-2" d="m4.07,52.09c.07.15.13.14.16-.02l1.62-9.55c.02-.11.1-.18.2-.18h2.63c.07,0,.13.06.15.13l1.63,9.34c.09.51.17.51.24-.01l1.26-9.36c.01-.06.05-.11.1-.11h2.49c.05,0,.09.05.09.11v.02l-2.21,12.95c-.03.16-.11.26-.27.26h-3.27s-.04-.02-.04-.05c-.48-2.81-.97-5.62-1.45-8.42-.01-.07-.02-.11-.02-.11-.07-.13-.13-.12-.15.04l-1.46,8.42c-.01.08-.05.12-.13.12h-3.38s-.05-.02-.06-.06L0,42.5c-.01-.07.03-.14.09-.15h2.44c.08,0,.16.07.17.16.45,3.17.91,6.31,1.36,9.43,0,.07.01.13.01.14Z"/>
  <path class="cls-2" d="m32.33,51.06v4.42c0,.12-.05.18-.16.18h-2.46s-.08-.04-.08-.09v-13.1c0-.07.05-.13.11-.13,1.77-.02,3.49-.06,5.24.08,1.36.11,2.61.62,2.87,2.29.25,1.66.36,4.63-1.16,5.69-.08.06-.11.16-.08.26l1.54,4.8c.02.08-.01.16-.08.19-.01,0-.03.01-.04.01h-2.55c-.05,0-.09-.04-.11-.09l-1.32-4.43c-.02-.08-.09-.14-.18-.14h-1.51s-.03.05-.03.08Zm-.04-6.06l.02,3.39c0,.08.06.14.13.14h1.8c.59-.01,1.06-.55,1.05-1.19v-1.31c-.01-.66-.49-1.18-1.07-1.17h-1.8c-.06,0-.13.06-.13.14Z"/>
  <path class="cls-2" d="m44.24,50.26v5.31s-.03.09-.08.09h-2.53s-.08-.04-.08-.09v-13.16s.03-.09.08-.09h2.53s.08.04.08.09v5.1s.03.09.08.09h.61s.05-.01.07-.05l2.68-5.19s.04-.05.07-.05h2.71s.07.04.07.09c0,.01,0,.04-.01.05l-3.37,6.19s-.01.06,0,.09l3.4,6.79s.01.09-.03.12c-.01.01-.02.01-.04.01h-2.81s-.05-.01-.07-.05l-2.61-5.39s-.04-.05-.07-.05h-.6s-.07.05-.07.09Z"/>
  <path class="cls-2" d="m56.27,53.03h3.81s.06.05.06.08v2.46s-.03.07-.06.07h-6.5s-.06-.04-.06-.07v-13.19s.03-.07.06-.07h2.55s.06.04.06.07v10.56c.01.06.04.08.07.08Z"/>
  <path class="cls-2" d="m63.33,42.33h2.59s.06.04.06.07v13.19s-.03.07-.06.07h-2.59s-.06-.04-.06-.07v-13.19s.02-.07.06-.07Z"/>
  <path class="cls-2" d="m72.49,55.65h-2.54s-.07-.02-.07-.07v-13.17s.03-.08.07-.08h6.68s.07.04.07.08v2.38s-.03.08-.07.08h-3.99s-.07.04-.07.08v2.99s.03.08.07.08h3.52s.07.04.07.08v2.36s-.04.08-.08.08h-3.5s-.07.04-.07.08v4.94s-.04.08-.08.08Z"/>
  <path class="cls-2" d="m87.43,53.22v2.35s-.04.08-.08.08h-6.96s-.07-.04-.07-.08v-13.16s.03-.08.07-.08h6.96s.07.04.07.08v2.36s-.03.08-.07.08h-4.31s-.07.04-.07.08v2.64s.03.08.07.08h3.65s.07.04.07.08l.02,2.35s-.03.08-.07.08h-3.67s-.07.04-.07.08v2.78s.03.08.07.08h4.32s.07.05.07.09Z"/>
  <path class="cls-2" d="m102.29,50.68c.06.27.13.27.19,0l1.93-8.29s.03-.06.06-.06h3.68c.05,0,.09.05.09.12v13.15s-.02.06-.05.06h-2.53s-.04-.02-.04-.05v-8.95s-.02-.05-.04-.06h-.04s-.05.02-.06.06l-2.11,8.95s-.02.04-.04.04h-2.03s-.05-.01-.05-.05l-2.11-9.06s-.03-.07-.07-.08c-.03-.01-.05.01-.05.05-.02,3.02-.02,6.05-.03,9.08,0,.02,0,.05-.04.05l-2.36.02c-.05,0-.1-.05-.1-.12v-13.13s.03-.08.07-.08h3.68c.05,0,.09.04.1.09l1.96,8.26Z"/>
  <path class="cls-2" d="m117.88,52.99h-3.4s-.06.02-.07.06l-.52,2.54s-.03.06-.07.06h-2.57s-.07-.04-.07-.08v-.02l3.13-13.17s.03-.06.07-.06h3.67s.06.02.07.06l3.12,13.16s0,.08-.05.09h-2.6s-.06-.02-.07-.06l-.56-2.54s-.03-.03-.07-.03Zm-2.9-2.59s.02.09.06.11h2.25s.08-.04.08-.09v-.02l-1.11-5.28s-.05-.08-.09-.07c-.03.01-.05.04-.06.07l-1.13,5.29Z"/>
  <path class="cls-2" d="m122.68,44.87v-2.45s.03-.09.08-.09h8.15s.08.04.08.09v2.45s-.03.09-.08.09h-2.66s-.08.04-.08.09v10.52s-.04.08-.09.09h-2.52s-.08-.02-.08-.08v-10.54s-.03-.09-.08-.09h-2.64s-.07-.04-.07-.08Z"/>
  <path class="cls-2" d="m149.96,50.3h-3s-.08.05-.08.09v5.17s-.04.09-.08.09h-2.55s-.08-.05-.08-.09v-13.14s.04-.09.08-.09h2.55s.08.05.08.09v5.12s.04.09.08.09h3s.08-.05.08-.09v-5.12s.04-.09.08-.09h2.55s.08.05.08.09v13.14s-.04.09-.08.09h-2.55s-.08-.05-.08-.09v-5.17c0-.06-.04-.09-.08-.09Z"/>
</svg>