<svg xmlns="http://www.w3.org/2000/svg" viewBox="0 0 210 30">
  <g transform="scale(1.3) translate(-62, -5)">
    <path fill="white" d="m88.25,24.51c-2,0-4.1-.4-4.3-3.2v-.5c-.2-2.5-.2-4.9.1-7.4.3-2.8,3.9-2.7,5.8-2.4.6.1,1.2.2,1.7.5.9.7,1.2,1.8,1.2,2.9.1,2.5.1,4.8-.1,7-.2,2.7-2.4,3.1-4.4,3.1Zm1.8-9.9c0-.7-.5-1.3-1.2-1.3h-1.1c-.6,0-1.2.6-1.2,1.3v6c0,.7.5,1.3,1.2,1.3h1.1c.6,0,1.2-.6,1.2-1.3v-6Z"/>
    <path fill="white" d="m201.45,12.11c1.3-1.7,4.3-1.4,6-.9,0,0,.1,0,.1.1v2.2s0,.1-.1.1h0c-.7-.1-1.5-.2-2.2-.2-.8,0-1.7.1-1.8,1.2-.2,1.7-.2,3.4-.1,5.1,0,.7.2,1.6.7,2,.8.5,2.5.2,3.4.1q.1,0,.1.1h0v2.1q0,.1-.1.1c-1.6.4-3.8.6-5.2-.2-1-.5-1.3-1.5-1.5-2.7-.3-2.3-.3-4.6-.1-6.9.2-.8.3-1.6.8-2.2Z"/>
    <path fill="white" d="m70.85,20.71c.1.2.1.1.2,0l1.6-9.5c0-.1.1-.2.2-.2h2.6c.1,0,.1.1.1.1l1.6,9.3c.1.5.2.5.2,0l1.3-9.4c0-.1.1-.1.1-.1h2.5q.1,0,.1.1h0l-2.2,13c0,.2-.1.3-.3.3h-3.3l-1.5-8.4v-.1q-.1-.1-.1,0l-1.4,8.4c0,.1-.1.1-.1.1h-3.4s-.1,0-.1-.1l-2.2-13.1q0-.1.1-.2h2.4c.1,0,.2.1.2.2.4,3.2.9,6.3,1.4,9.4v.2Z"/>
    <path fill="white" d="m99.15,19.71v4.4c0,.1-.1.2-.2.2h-2.4s-.1,0-.1-.1v-13.1c0-.1.1-.1.1-.1,1.8,0,3.5-.1,5.2.1,1.4.1,2.6.6,2.9,2.3.3,1.7.4,4.6-1.2,5.7-.1.1-.1.2-.1.3l1.5,4.8c0,.1,0,.2-.1.2h-2.6q-.1,0-.1-.1l-1.3-4.4c0-.1-.1-.1-.2-.1l-1.4-.1q0-.1,0,0Zm-.1-6.1v3.4c0,.1.1.1.1.1h1.8c.6,0,1.1-.5,1-1.2v-1.3c0-.7-.5-1.2-1.1-1.2h-1.8c.1.1,0,.1,0,.2Z"/>
    <path fill="white" d="m111.05,18.91v5.3s0,.1-.1.1h-2.5s-.1,0-.1-.1v-13.2s0-.1.1-.1h2.5s.1,0,.1.1v5.1s0,.1.1.1h.7l2.7-5.2h2.8s.1,0,.1.1h0l-3.4,6.2v.1l3.4,6.8v.1h-2.9l-2.6-5.4h-.9q0-.1,0,0Z"/>
    <path fill="white" d="m123.05,21.71h3.8s.1,0,.1.1v2.5s0,.1-.1.1h-6.5s-.1,0-.1-.1v-13.3s0-.1.1-.1h2.6s.1,0,.1.1v10.7c0-.1,0,0,0,0Z"/>
    <path fill="white" d="m130.15,11.01h2.6s.1,0,.1.1v13.2s0,.1-.1.1h-2.6s-.1,0-.1-.1l.1-13.3q-.1,0,0,0Z"/>
    <path fill="white" d="m139.25,24.31h-2.5s-.1,0-.1-.1v-13.2s0-.1.1-.1h6.7s.1,0,.1.1v2.4s0,.1-.1.1h-4s-.1,0-.1.1v3s0,.1.1.1h3.5s.1,0,.1.1v2.4s0,.1-.1.1h-3.5s-.1,0-.1.1l-.1,4.9c.1-.1.1,0,0,0Z"/>
    <path fill="white" d="m154.25,21.81v2.4s0,.1-.1.1h-7s-.1,0-.1-.1v-13.2s0-.1.1-.1h7s.1,0,.1.1v2.4s0,.1-.1.1h-4.3s-.1,0-.1.1v2.6s0,.1.1.1h3.6s.1,0,.1.1v2.4s0,.1-.1.1h-3.7s-.1,0-.1.1v2.8s0,.1.1.1l4.5-.1c-.1,0,0,0,0,0Z"/>
    <path fill="white" d="m169.05,19.31q.1.3.2,0l1.9-8.3s0-.1.1-.1h3.7q.1,0,.1.1v13.2s0,.1-.1.1h-2.5v-9.1h0s-.1,0-.1.1l-2.1,9h-2.1l-2.1-9.1s0-.1-.1-.1h-.1v9.1h-2.4q-.1,0-.1-.1v-13.1s0-.1.1-.1h3.7q.1,0,.1.1l1.8,8.3Z"/>
    <path fill="white" d="m184.65,21.61h-3.4s-.1,0-.1.1l-.5,2.5s0,.1-.1.1h-2.6s-.1,0-.1-.1h0l3.1-13.2s0-.1.1-.1h3.7s.1,0,.1.1l3.1,13.2s0,.1-.1.1h-2.6s-.1,0-.1-.1l-.5-2.6q.1,0,0,0Zm-2.9-2.6s0,.1.1.1h2.2s.1,0,.1-.1h0l-1.1-5.3-.1-.1s-.1,0-.1.1l-1.1,5.3Z"/>
    <path fill="white" d="m189.45,13.51v-2.4s0-.1.1-.1h8.2s.1,0,.1.1v2.4s0,.1-.1.1h-2.7s-.1,0-.1.1v10.5s0,.1-.1.1h-2.5s-.1,0-.1-.1v-10.5s0-.1-.1-.1l-2.7-.1c.1.1,0,0,0,0Z"/>
    <path fill="white" d="m216.75,18.91h-3s-.1,0-.1.1v5.2s0,.1-.1.1h-2.6s-.1,0-.1-.1v-13.2s0-.1.1-.1h2.6s.1,0,.1.1v5.1s0,.1.1.1h3s.1,0,.1-.1v-5.1s0-.1.1-.1h2.5s.1,0,.1.1v13.1s0,.1-.1.1h-2.5s-.1,0-.1-.1l-.1-5.2c.1.1,0,0,0,0Z"/>
  </g>
</svg>